<?xml version="1.0" encoding="iso-8859-1"?>
<!-- Generator: Adobe Illustrator 18.1.1, SVG Export Plug-In . SVG Version: 6.00 Build 0)  -->
<svg version="1.1" id="Capa_1" xmlns="http://www.w3.org/2000/svg" xmlns:xlink="http://www.w3.org/1999/xlink" x="0px" y="0px"
	 viewBox="0 0 47.4 47.4" style="enable-background:new 0 0 47.4 47.4;" xml:space="preserve">
<g>
	<path style="fill:#1D1C1A;" d="M47.306,22.274c-0.295-1.812-1.201-3.452-2.552-4.618c-1.35-1.165-3.097-1.814-4.919-1.829h-0.062
		c-0.574,0-1.092,0.056-1.584,0.172c-3.649,0.859-6.036,3.959-5.938,7.713c0.021,0.785-0.193,1.47-0.635,2.034
		c-0.606,0.769-1.559,1.228-2.55,1.228c-0.295,0-0.587-0.041-0.868-0.12c-1.314-0.373-2.298-1.449-2.446-2.679
		c-0.179-1.461,0.372-2.566,1.638-3.284c2.882-1.635,4.386-4.876,3.741-8.063c-0.728-3.597-3.793-6.11-7.455-6.11
		c-0.402,0-0.809,0.031-1.208,0.092c-1.921,0.291-3.703,1.39-4.889,3.016c-1.197,1.64-1.687,3.605-1.378,5.534
		c0.393,2.446,1.696,4.321,3.876,5.574c0.942,0.541,1.475,1.347,1.586,2.394c0.095,0.911-0.188,1.795-0.798,2.49
		c-0.625,0.713-1.536,1.135-2.499,1.159c-0.008,0-0.062,0.001-0.071,0.001c-0.867,0-1.742-0.381-2.34-1.019
		c-0.579-0.617-0.866-1.451-0.807-2.347c0.032-0.501-0.01-1.038-0.131-1.643c-0.349-1.757-1.288-3.333-2.646-4.44
		c-1.341-1.094-3.043-1.697-4.793-1.697c-0.466,0-0.94,0.042-1.408,0.126c-1.956,0.351-3.732,1.527-4.873,3.224
		c-1.138,1.693-1.554,3.775-1.142,5.713c0.76,3.588,3.826,6.094,7.454,6.094c1.348,0,2.664-0.366,3.807-1.06
		c0.474-0.288,0.979-0.434,1.5-0.434c0.1,0,0.2,0.005,0.301,0.016c1.733,0.196,2.957,1.605,2.912,3.351
		c-0.013,0.496,0.01,0.933,0.071,1.337c0.271,1.809,1.17,3.46,2.532,4.649c1.355,1.182,3.084,1.834,4.867,1.834
		c0.254,0,0.512-0.013,0.768-0.039c1.589-0.163,2.944-0.683,4.027-1.544c1.07-0.851,1.901-2.053,2.47-3.573
		c0.341-0.909,0.385-1.835,0.408-2.952c0.031-1.476,1.252-3.068,3.171-3.068c0.538,0,1.048,0.139,1.517,0.412
		c1.204,0.703,2.489,1.059,3.821,1.059c0.421,0,0.851-0.034,1.279-0.102c1.957-0.309,3.693-1.389,4.889-3.043
		C47.139,26.185,47.621,24.211,47.306,22.274z M7.578,26.869c-0.923,0-1.791-0.361-2.444-1.015s-1.013-1.523-1.013-2.445
		c0.001-1.942,1.521-3.463,3.462-3.463c0.929,0.003,1.799,0.365,2.451,1.019c0.653,0.655,1.011,1.523,1.008,2.445
		C11.035,25.285,9.449,26.869,7.578,26.869z M20.234,14.263c0.012-1.899,1.56-3.444,3.452-3.444
		c0.942,0.006,1.817,0.374,2.469,1.036c0.653,0.66,1.009,1.537,1.001,2.466c-0.015,1.884-1.569,3.417-3.462,3.417
		c-0.003,0-0.005,0-0.008,0C21.771,17.724,20.223,16.165,20.234,14.263z M23.695,36.577c-0.001,0-0.001,0-0.002,0
		c-0.919,0-1.787-0.363-2.442-1.021c-0.66-0.661-1.021-1.538-1.017-2.468c0.009-1.891,1.563-3.43,3.463-3.43
		c1.914,0.007,3.464,1.559,3.459,3.459C27.152,35.021,25.599,36.574,23.695,36.577z M39.824,26.869c-0.001,0-0.003,0-0.004,0
		c-0.924,0-1.796-0.365-2.455-1.028c-0.659-0.664-1.019-1.537-1.013-2.458c0.003-0.92,0.368-1.784,1.024-2.434
		c0.565-0.559,1.214-0.84,1.616-0.999c0.253-0.391,0.696-0.432,0.764-0.436c0.02-0.001,0.039-0.002,0.059-0.002
		c0.031,0,0.602,0.007,0.868,0.515c0.033,0.013,0.066,0.025,0.096,0.037c0.114,0.043,0.235,0.089,0.36,0.141
		c0.422,0.174,0.8,0.427,1.125,0.753c0.652,0.656,1.01,1.534,1.008,2.474C43.264,25.319,41.717,26.86,39.824,26.869z"/>
</g>
<g>
</g>
<g>
</g>
<g>
</g>
<g>
</g>
<g>
</g>
<g>
</g>
<g>
</g>
<g>
</g>
<g>
</g>
<g>
</g>
<g>
</g>
<g>
</g>
<g>
</g>
<g>
</g>
<g>
</g>
</svg>
